<svg width="30" height="30" viewBox="0 0 30 30" fill="none" xmlns="http://www.w3.org/2000/svg">
<g clip-path="url(#clip0_122_103)">
<path d="M25.6066 4.39336C22.7735 1.56029 19.0066 0 15 0C10.9934 0 7.22654 1.56029 4.39336 4.39336C1.56029 7.22654 0 10.9934 0 15C0 19.0066 1.56029 22.7735 4.39336 25.6066C7.22654 28.4397 10.9934 30 15 30C19.0066 30 22.7735 28.4397 25.6066 25.6066C28.4397 22.7735 30 19.0066 30 15C30 10.9934 28.4397 7.22654 25.6066 4.39336ZM15 27.6562C8.02131 27.6562 2.34375 21.9787 2.34375 15C2.34375 8.02131 8.02131 2.34375 15 2.34375C21.9787 2.34375 27.6562 8.02131 27.6562 15C27.6562 21.9787 21.9787 27.6562 15 27.6562Z" fill="white"/>
<path d="M21.6207 16.7446C21.6165 16.7571 21.1931 18.0117 20.1547 19.2285C18.8332 20.7772 17.1462 21.5624 15.1407 21.5624C13.1206 21.5624 11.3792 20.7678 9.96489 19.2009C8.8563 17.9726 8.36692 16.7083 8.36353 16.6995L6.16772 17.5192C6.19233 17.5849 6.78489 19.1476 8.16067 20.6992C10.0208 22.7972 12.4345 23.9061 15.1407 23.9061C17.8601 23.9061 20.2327 22.7884 22.0019 20.6738C23.3096 19.1108 23.828 17.5361 23.8494 17.4698L21.6207 16.7446Z" fill="white"/>
<path d="M9.84375 12.4287C10.8793 12.4287 11.7188 11.5892 11.7188 10.5537C11.7188 9.51818 10.8793 8.67871 9.84375 8.67871C8.80822 8.67871 7.96875 9.51818 7.96875 10.5537C7.96875 11.5892 8.80822 12.4287 9.84375 12.4287Z" fill="white"/>
<path d="M20.1562 12.4287C21.1918 12.4287 22.0312 11.5892 22.0312 10.5537C22.0312 9.51818 21.1918 8.67871 20.1562 8.67871C19.1207 8.67871 18.2812 9.51818 18.2812 10.5537C18.2812 11.5892 19.1207 12.4287 20.1562 12.4287Z" fill="white"/>
</g>
<defs>
<clipPath id="clip0_122_103">
<rect width="30" height="30" fill="white"/>
</clipPath>
</defs>
</svg>
