<svg width="24" height="24" viewBox="0 0 24 24" fill="none" xmlns="http://www.w3.org/2000/svg">
<path d="M19.3886 9.25355C19.345 9.1766 19.2817 9.11259 19.2053 9.06805C19.1289 9.02352 19.042 9.00005 18.9536 9.00005H12.4036L13.5017 0.609675C13.5135 0.497383 13.4871 0.384393 13.4269 0.288897C13.3667 0.193402 13.276 0.120957 13.1696 0.0832279C13.0632 0.0454987 12.9472 0.0446805 12.8403 0.0809049C12.7333 0.117129 12.6417 0.188289 12.5801 0.282925L4.61459 14.2382C4.56801 14.3139 4.54248 14.4008 4.54064 14.4897C4.53879 14.5786 4.56069 14.6664 4.60409 14.744C4.64748 14.8216 4.71079 14.8863 4.7875 14.9313C4.86421 14.9763 4.95153 15 5.04047 15.0001H11.4926L10.6223 23.403C10.6138 23.515 10.6429 23.6265 10.7051 23.72C10.7672 23.8134 10.8588 23.8834 10.9654 23.9187C11.0719 23.9541 11.1872 23.9528 11.2929 23.9151C11.3986 23.8774 11.4886 23.8055 11.5487 23.7107L19.3826 9.75693C19.428 9.68105 19.4525 9.59448 19.4536 9.50605C19.4546 9.41762 19.4322 9.33049 19.3886 9.25355Z" fill="white"/>
</svg>
