<svg width="24" height="24" viewBox="0 0 24 24" fill="none" xmlns="http://www.w3.org/2000/svg">
<g clip-path="url(#clip0_97_552)">
<path d="M23.9896 8.05477V2.67057C23.9896 1.20086 22.794 0.00512695 21.3242 0.00512695H2.66545C1.19569 0.00512695 0 1.20086 0 2.67057V21.3294C0 22.7991 1.19569 23.9948 2.66545 23.9948H21.3242C22.794 23.9948 23.9897 22.7991 23.9897 21.3294V8.29613C23.9965 8.25689 24 8.21658 24 8.17542C24 8.13427 23.9964 8.094 23.9896 8.05477ZM16.3329 1.41062H21.3242C22.019 1.41062 22.5842 1.97584 22.5842 2.67057V7.47272H16.3329V1.41062ZM7.28136 22.5893H2.66545C1.97067 22.5893 1.4055 22.0241 1.4055 21.3294V16.5243H7.28136V22.5893ZM7.28136 15.1188H1.4055V8.87822H7.28136V15.1188ZM7.28141 7.47272H1.4055V2.67057C1.4055 1.97584 1.97067 1.41062 2.66545 1.41062H7.28141V7.47272ZM14.9274 22.5893H8.68681V16.5243H14.9274V22.5893ZM14.9274 15.1188H8.68681V8.87822H14.9274V15.1188ZM14.9274 7.47272H8.68681V1.41062H14.9274V7.47272ZM22.5842 21.3294C22.5842 22.0241 22.019 22.5893 21.3242 22.5893H16.3329V16.5243H22.5842V21.3294ZM22.5842 15.1188H16.3329V8.87822H22.5842V15.1188Z" fill="white"/>
</g>
<defs>
<clipPath id="clip0_97_552">
<rect width="24" height="24" fill="white"/>
</clipPath>
</defs>
</svg>
