<svg width="32" height="29" viewBox="0 0 32 29" fill="none" xmlns="http://www.w3.org/2000/svg">
<path d="M30.7068 3.08288L16.4821 0.574696C15.7679 0.448767 15.0356 1.21617 14.8465 2.28874L11.0797 23.6514C10.8906 24.7239 11.3162 25.6955 12.0304 25.8214L26.2551 28.3296C26.9693 28.4555 27.7016 27.6881 27.8907 26.6156L31.6575 5.25295C31.8466 4.18039 31.421 3.20881 30.7068 3.08288ZM26.2217 26.3213L12.779 23.951L16.5458 2.58837L29.9885 4.95867L26.2217 26.3213Z" fill="white"/>
<path d="M2.3259 4.2478L14.3126 1.9729L14.1585 1.14095L13.912 0.0933187C14.6142 -0.0304998 14.6218 -0.0317938 13.912 0.0933187L1.296 2.46133C0.593793 2.58514 0.175217 3.54009 0.361093 4.59425L4.06326 25.5903C4.24913 26.6445 4.96908 27.3987 5.67129 27.2748L10.2145 26.4383L9.90635 24.5895L6.02806 25.2439L2.3259 4.2478Z" fill="white"/>
<path d="M18.195 12.4801C19.2841 12.4801 20.167 11.5973 20.167 10.5081C20.167 9.41903 19.2841 8.53613 18.195 8.53613C17.1059 8.53613 16.223 9.41903 16.223 10.5081C16.223 11.5973 17.1059 12.4801 18.195 12.4801Z" fill="white"/>
<path d="M13.4727 22.0321H26.8447C27.3062 22.0352 27.6826 21.5959 27.6853 21.0507C27.6866 20.7855 27.5975 20.5308 27.4381 20.3441L24.0951 16.3955C23.7691 16.0128 23.2427 16.0128 22.9167 16.3955L21.8302 17.6788L19.0806 14.4311C18.7546 14.0484 18.2282 14.0484 17.9022 14.4311L12.8877 20.354C12.5645 20.7433 12.5697 21.3682 12.8993 21.7499C13.0527 21.9275 13.258 22.0285 13.4727 22.0321Z" fill="white"/>
</svg>
