<svg width="24" height="24" viewBox="0 0 24 24" fill="none" xmlns="http://www.w3.org/2000/svg">
<path d="M16.9518 2.6937L16.1458 4.08848L18.9387 5.7006L19.7448 4.30577C19.9668 3.9186 19.8346 3.42734 19.4489 3.20366L18.0541 2.39758C17.6682 2.17413 17.1755 2.30632 16.9518 2.6937Z" fill="white"/>
<path d="M11.9999 3.6298C12.5097 3.6298 13.0077 3.67969 13.4999 3.75V2.44537L14.5312 2.43749V0.75C14.5312 0.335451 14.1957 0 13.7812 0H10.2266C9.81201 0 9.47656 0.335451 9.47656 0.75V2.43749L10.4999 2.44537V3.75C10.9921 3.67969 11.4901 3.6298 11.9999 3.6298Z" fill="white"/>
<path d="M12 4.5C6.61522 4.5 2.25 8.86518 2.25 14.25C2.25 19.6348 6.61522 24 12 24C17.3848 24 21.75 19.6348 21.75 14.25C21.75 8.86518 17.3848 4.5 12 4.5ZM10.875 14.8993V9.34667H12.5145V14.8993H10.875Z" fill="white"/>
</svg>
