<svg width="24" height="24" viewBox="0 0 24 24" fill="none" xmlns="http://www.w3.org/2000/svg">
<path d="M10.3451 3.09355L15.334 3.09355C16.5323 3.09355 18.572 3.75758 18.572 7.68043V16.9479L16.5468 16.9465C16.2746 16.9465 16.0251 17.1129 15.8984 17.3775C15.7708 17.6426 15.7886 17.9629 15.942 18.2102L19.3439 23.6857C19.4658 23.8815 19.6669 23.9989 19.8825 23.9998C20.0982 24.0007 20.3008 23.8846 20.4227 23.6893L23.8698 18.2156C24.0248 17.9688 24.0427 17.6467 23.9166 17.3807C23.7906 17.1142 23.5396 16.9479 23.2674 16.9479L21.1336 16.9465V12.2385V7.2997C21.1336 3.06468 19.1775 0 15.334 0L9.84306 0C8.51884 0 8.07907 0.0874879 8.07907 1.54678C8.07907 3.00623 9.02092 3.09355 10.3451 3.09355Z" fill="white"/>
<path d="M13.6549 20.9064L8.66602 20.9064C7.46776 20.9064 5.42804 20.2424 5.42804 16.3196L5.42804 7.0521L7.45322 7.05346C7.7254 7.05346 7.97491 6.88711 8.10162 6.62248C8.22921 6.35741 8.21142 6.03709 8.05802 5.78977L4.6561 0.314285C4.53417 0.118522 4.33308 0.00107527 4.11746 0.000152111C3.90184 -0.000660419 3.69922 0.115428 3.5773 0.310703L0.130156 5.78439C-0.0248237 6.03123 -0.0426567 6.35334 0.083406 6.61927C0.20937 6.88575 0.460412 7.0521 0.732587 7.0521L2.86639 7.05346L2.86639 11.7615L2.86639 16.7003C2.86639 20.9353 4.82251 24 8.66602 24L14.157 24C15.4812 24 15.9209 23.9125 15.9209 22.4532C15.9209 20.9938 14.9791 20.9064 13.6549 20.9064Z" fill="white"/>
</svg>
